<?xml version="1.0" encoding="UTF-8"?>
<svg id="_Слой_1" data-name="Слой_1" xmlns="http://www.w3.org/2000/svg" xmlns:xlink="http://www.w3.org/1999/xlink" viewBox="0 0 437.25 617.58">
  <defs>
    <style>
      .cls-1 {
        fill: url(#_Безымянный_градиент_27-3);
      }

      .cls-2 {
        fill: url(#_Безымянный_градиент_27-2);
      }

      .cls-3 {
        fill: url(#_Безымянный_градиент_63-2);
      }

      .cls-4 {
        filter: url(#drop-shadow-2);
      }

      .cls-5 {
        fill: url(#_Безымянный_градиент_57);
      }

      .cls-6 {
        fill: url(#_Безымянный_градиент_64);
      }

      .cls-7 {
        fill: url(#_Безымянный_градиент_6-2);
      }

      .cls-8 {
        fill: url(#_Безымянный_градиент_6-4);
      }

      .cls-9 {
        fill: url(#_Безымянный_градиент_21);
      }

      .cls-10 {
        opacity: .3;
      }

      .cls-11 {
        fill: url(#_Безымянный_градиент_6-6);
      }

      .cls-12 {
        fill: url(#_Безымянный_градиент_64-4);
      }

      .cls-13 {
        fill: url(#_Безымянный_градиент_6-10);
      }

      .cls-14 {
        fill: url(#_Безымянный_градиент_6-12);
      }

      .cls-15 {
        fill: url(#_Безымянный_градиент_59);
      }

      .cls-16 {
        fill: url(#_Безымянный_градиент_59-3);
      }

      .cls-17 {
        fill: url(#_Безымянный_градиент_64-6);
      }

      .cls-18 {
        fill: url(#_Безымянный_градиент_64-5);
      }

      .cls-19 {
        fill: url(#_Безымянный_градиент_27-6);
      }

      .cls-20 {
        opacity: .23;
      }

      .cls-21 {
        fill: url(#_Безымянный_градиент_21-6);
      }

      .cls-22 {
        fill: url(#_Безымянный_градиент_6-9);
      }

      .cls-23 {
        fill: url(#_Безымянный_градиент_6-11);
      }

      .cls-24 {
        filter: url(#drop-shadow-1);
      }

      .cls-25 {
        fill: url(#_Безымянный_градиент_6-13);
      }

      .cls-26 {
        fill: url(#_Безымянный_градиент_27-4);
      }

      .cls-27 {
        fill: url(#_Безымянный_градиент_6-5);
      }

      .cls-28 {
        fill: url(#_Безымянный_градиент_63-3);
      }

      .cls-29 {
        fill: #e25e38;
      }

      .cls-30 {
        fill: url(#_Безымянный_градиент_6-3);
      }

      .cls-31 {
        fill: url(#_Безымянный_градиент_27-5);
      }

      .cls-32 {
        fill: url(#_Безымянный_градиент_64-2);
      }

      .cls-33 {
        fill: url(#_Безымянный_градиент_63-6);
      }

      .cls-34 {
        fill: url(#_Безымянный_градиент_62);
      }

      .cls-35 {
        fill: url(#_Безымянный_градиент_21-2);
      }

      .cls-36 {
        fill: url(#_Безымянный_градиент_21-4);
      }

      .cls-37 {
        fill: url(#_Безымянный_градиент_59-2);
      }

      .cls-38 {
        fill: url(#_Безымянный_градиент_63);
      }

      .cls-39 {
        fill: url(#_Безымянный_градиент_25);
      }

      .cls-40 {
        filter: url(#drop-shadow-3);
      }

      .cls-41 {
        fill: url(#_Безымянный_градиент_21-8);
      }

      .cls-42 {
        fill: url(#_Безымянный_градиент_21-3);
      }

      .cls-43 {
        fill: url(#_Безымянный_градиент_6-8);
      }

      .cls-44 {
        fill: url(#_Безымянный_градиент_27-7);
      }

      .cls-45 {
        fill: url(#_Безымянный_градиент_36);
      }

      .cls-46 {
        fill: url(#_Безымянный_градиент_63-4);
      }

      .cls-47 {
        fill: url(#_Безымянный_градиент_64-3);
      }

      .cls-48 {
        fill: url(#_Безымянный_градиент_6-7);
      }

      .cls-49 {
        fill: url(#_Безымянный_градиент_21-7);
      }

      .cls-50 {
        fill: url(#_Безымянный_градиент_27);
      }

      .cls-51 {
        fill: url(#_Безымянный_градиент_21-5);
      }

      .cls-52 {
        fill: url(#_Безымянный_градиент_63-5);
      }

      .cls-53 {
        fill: #fff;
        opacity: .26;
      }

      .cls-54 {
        fill: url(#_Безымянный_градиент_6);
      }
    </style>
    <filter id="drop-shadow-1" x="-2.34" y="-2.53" width="416" height="410" filterUnits="userSpaceOnUse">
      <feOffset dx="1" dy="1"/>
      <feGaussianBlur result="blur" stdDeviation="1"/>
      <feFlood flood-color="#000" flood-opacity=".1"/>
      <feComposite in2="blur" operator="in"/>
      <feComposite in="SourceGraphic"/>
    </filter>
    <linearGradient id="_Безымянный_градиент_59" data-name="Безымянный градиент 59" x1="129.94" y1="109.85" x2="248.99" y2="79.2" gradientUnits="userSpaceOnUse">
      <stop offset="0" stop-color="#fbb641"/>
      <stop offset=".24" stop-color="#fab240"/>
      <stop offset=".46" stop-color="#f9a73f"/>
      <stop offset=".66" stop-color="#f8953d"/>
      <stop offset=".85" stop-color="#f67c3a"/>
      <stop offset="1" stop-color="#f56438"/>
    </linearGradient>
    <linearGradient id="_Безымянный_градиент_59-2" data-name="Безымянный градиент 59" x1="141.8" y1="131.1" x2="-20.02" y2="173.16" xlink:href="#_Безымянный_градиент_59"/>
    <linearGradient id="_Безымянный_градиент_36" data-name="Безымянный градиент 36" x1="112.93" y1="260.22" x2="35.23" y2="203.9" gradientUnits="userSpaceOnUse">
      <stop offset=".19" stop-color="#f79c41"/>
      <stop offset=".41" stop-color="#f59840"/>
      <stop offset=".61" stop-color="#f18c3e"/>
      <stop offset=".81" stop-color="#ea793b"/>
      <stop offset="1" stop-color="#e05f38"/>
    </linearGradient>
    <linearGradient id="_Безымянный_градиент_27" data-name="Безымянный градиент 27" x1="50.7" y1="128.41" x2="145.51" y2="246.74" gradientUnits="userSpaceOnUse">
      <stop offset=".17" stop-color="#93dbe9"/>
      <stop offset=".32" stop-color="#8fd8e6"/>
      <stop offset=".46" stop-color="#83d1e0"/>
      <stop offset=".6" stop-color="#71c5d6"/>
      <stop offset=".73" stop-color="#56b3c7"/>
      <stop offset=".86" stop-color="#349db4"/>
      <stop offset=".99" stop-color="#0a839e"/>
      <stop offset="1" stop-color="#09829d"/>
    </linearGradient>
    <linearGradient id="_Безымянный_градиент_21" data-name="Безымянный градиент 21" x1="78.36" y1="355.55" x2="210.24" y2="279.99" gradientUnits="userSpaceOnUse">
      <stop offset="0" stop-color="#93dbe9"/>
      <stop offset="1" stop-color="#09829d"/>
    </linearGradient>
    <linearGradient id="_Безымянный_градиент_25" data-name="Безымянный градиент 25" x1="272.38" y1="260.26" x2="173.29" y2="336.54" gradientUnits="userSpaceOnUse">
      <stop offset=".31" stop-color="#93dbe9"/>
      <stop offset=".51" stop-color="#90d9e7"/>
      <stop offset=".62" stop-color="#88d4e3"/>
      <stop offset=".71" stop-color="#7acbdb"/>
      <stop offset=".8" stop-color="#66bed0"/>
      <stop offset=".87" stop-color="#4cadc2"/>
      <stop offset=".94" stop-color="#2d99b1"/>
      <stop offset="1" stop-color="#09829d"/>
    </linearGradient>
    <linearGradient id="_Безымянный_градиент_59-3" data-name="Безымянный градиент 59" x1="311.18" y1="77.65" x2="311.18" y2="367.06" xlink:href="#_Безымянный_градиент_59"/>
    <linearGradient id="_Безымянный_градиент_57" data-name="Безымянный градиент 57" x1="328.59" y1="222.33" x2="398.45" y2="336.39" gradientUnits="userSpaceOnUse">
      <stop offset="0" stop-color="#93dbe9"/>
      <stop offset=".13" stop-color="#8bd6e5"/>
      <stop offset=".33" stop-color="#78c9da"/>
      <stop offset=".56" stop-color="#58b5c8"/>
      <stop offset=".82" stop-color="#2c98b0"/>
      <stop offset="1" stop-color="#09829d"/>
    </linearGradient>
    <linearGradient id="_Безымянный_градиент_62" data-name="Безымянный градиент 62" x1="323.92" y1="143.91" x2="410.18" y2="104.7" gradientUnits="userSpaceOnUse">
      <stop offset="0" stop-color="#f9b73d"/>
      <stop offset=".16" stop-color="#f9be50" stop-opacity=".95"/>
      <stop offset=".45" stop-color="#fbd183" stop-opacity=".82"/>
      <stop offset=".83" stop-color="#fdf0d6" stop-opacity=".6"/>
      <stop offset="1" stop-color="#fff" stop-opacity=".5"/>
    </linearGradient>
    <linearGradient id="_Безымянный_градиент_63" data-name="Безымянный градиент 63" x1="270.36" y1="44.35" x2="309.21" y2="73.58" gradientUnits="userSpaceOnUse">
      <stop offset="0" stop-color="#f4cc98"/>
      <stop offset="1" stop-color="#e05f38"/>
    </linearGradient>
    <linearGradient id="_Безымянный_градиент_6" data-name="Безымянный градиент 6" x1="272.41" y1="57.01" x2="302" y2="57.01" gradientTransform="translate(173.78 -212.94) rotate(55.98)" gradientUnits="userSpaceOnUse">
      <stop offset="0" stop-color="#f4cc98"/>
      <stop offset="1" stop-color="#f2a358"/>
    </linearGradient>
    <linearGradient id="_Безымянный_градиент_63-2" data-name="Безымянный градиент 63" x1="316.48" y1="54.88" x2="341.54" y2="73.73" xlink:href="#_Безымянный_градиент_63"/>
    <linearGradient id="_Безымянный_градиент_6-2" data-name="Безымянный градиент 6" x1="317.8" y1="63.04" x2="336.89" y2="63.04" gradientTransform="translate(196.46 -243.55) rotate(55.98)" xlink:href="#_Безымянный_градиент_6"/>
    <linearGradient id="_Безымянный_градиент_63-3" data-name="Безымянный градиент 63" x1="247.3" y1="30.67" x2="266.55" y2="45.15" xlink:href="#_Безымянный_градиент_63"/>
    <linearGradient id="_Безымянный_градиент_6-3" data-name="Безымянный градиент 6" x1="248.31" y1="36.94" x2="262.97" y2="36.94" gradientTransform="translate(143.23 -195.62) rotate(55.98)" xlink:href="#_Безымянный_градиент_6"/>
    <linearGradient id="_Безымянный_градиент_63-4" data-name="Безымянный градиент 63" x1="225.12" y1="146.46" x2="248.26" y2="163.87" xlink:href="#_Безымянный_градиент_63"/>
    <linearGradient id="_Безымянный_градиент_6-4" data-name="Безымянный градиент 6" x1="226.33" y1="154" x2="243.96" y2="154" gradientTransform="translate(231.23 -127.06) rotate(55.98)" xlink:href="#_Безымянный_градиент_6"/>
    <linearGradient id="_Безымянный_градиент_63-5" data-name="Безымянный градиент 63" x1="255.06" y1="162.57" x2="266.23" y2="170.97" xlink:href="#_Безымянный_градиент_63"/>
    <linearGradient id="_Безымянный_градиент_6-5" data-name="Безымянный градиент 6" x1="255.64" y1="166.21" x2="264.16" y2="166.21" gradientTransform="translate(252.26 -142.2) rotate(55.98)" xlink:href="#_Безымянный_градиент_6"/>
    <linearGradient id="_Безымянный_градиент_63-6" data-name="Безымянный градиент 63" x1="253.19" y1="140.4" x2="268.74" y2="152.09" xlink:href="#_Безымянный_градиент_63"/>
    <linearGradient id="_Безымянный_градиент_6-6" data-name="Безымянный градиент 6" x1="254.01" y1="145.46" x2="265.85" y2="145.46" gradientTransform="translate(235.08 -151.36) rotate(55.98)" xlink:href="#_Безымянный_градиент_6"/>
    <linearGradient id="_Безымянный_градиент_64" data-name="Безымянный градиент 64" x1="74.58" y1="262.84" x2="96.08" y2="284.7" gradientUnits="userSpaceOnUse">
      <stop offset=".17" stop-color="#93dbe9"/>
      <stop offset=".34" stop-color="#7bcbdc"/>
      <stop offset=".7" stop-color="#3fa5bb"/>
      <stop offset="1" stop-color="#09829d"/>
    </linearGradient>
    <linearGradient id="_Безымянный_градиент_27-2" data-name="Безымянный градиент 27" x1="75.21" y1="274.33" x2="95.16" y2="274.33" gradientTransform="translate(264.9 50.25) rotate(55.98)" xlink:href="#_Безымянный_градиент_27"/>
    <linearGradient id="_Безымянный_градиент_64-2" data-name="Безымянный градиент 64" x1="60.8" y1="258.64" x2="69.85" y2="267.85" xlink:href="#_Безымянный_градиент_64"/>
    <linearGradient id="_Безымянный_градиент_27-3" data-name="Безымянный градиент 27" x1="61.06" y1="263.48" x2="69.46" y2="263.48" gradientTransform="translate(247.13 61.98) rotate(55.98)" xlink:href="#_Безымянный_градиент_27"/>
    <linearGradient id="_Безымянный_градиент_64-3" data-name="Безымянный градиент 64" x1="81.44" y1="294.27" x2="95.38" y2="308.44" xlink:href="#_Безымянный_градиент_64"/>
    <linearGradient id="_Безымянный_градиент_27-4" data-name="Безымянный градиент 27" x1="81.85" y1="301.71" x2="94.78" y2="301.71" gradientTransform="translate(288.98 59.72) rotate(55.98)" xlink:href="#_Безымянный_градиент_27"/>
    <linearGradient id="_Безымянный_градиент_64-4" data-name="Безымянный градиент 64" x1="196.86" y1="347.48" x2="225.27" y2="376.36" xlink:href="#_Безымянный_градиент_64"/>
    <linearGradient id="_Безымянный_градиент_27-5" data-name="Безымянный градиент 27" x1="197.69" y1="362.65" x2="224.05" y2="362.65" gradientTransform="translate(393.48 -15.02) rotate(55.98)" xlink:href="#_Безымянный_градиент_27"/>
    <linearGradient id="_Безымянный_градиент_64-5" data-name="Безымянный градиент 64" x1="1394.23" y1="2303.75" x2="1405.01" y2="2314.71" gradientTransform="translate(655.48 -2300.88) rotate(39.93)" xlink:href="#_Безымянный_градиент_64"/>
    <linearGradient id="_Безымянный_градиент_27-6" data-name="Безымянный градиент 27" x1="1394.55" y1="2309.51" x2="1404.55" y2="2309.51" gradientTransform="translate(1377.53 -2083.7) rotate(55.98)" xlink:href="#_Безымянный_градиент_27"/>
    <linearGradient id="_Безымянный_градиент_64-6" data-name="Безымянный градиент 64" x1="198.69" y1="-1013.28" x2="215.28" y2="-996.41" gradientTransform="translate(403.31 1382.36) rotate(-24.18)" xlink:href="#_Безымянный_градиент_64"/>
    <linearGradient id="_Безымянный_градиент_27-7" data-name="Безымянный градиент 27" x1="199.18" y1="-1004.42" x2="214.57" y2="-1004.42" gradientTransform="translate(-767.67 771.81) rotate(55.98)" xlink:href="#_Безымянный_градиент_27"/>
    <filter id="drop-shadow-2" x="89.66" y="576.47" width="282" height="46" filterUnits="userSpaceOnUse">
      <feOffset dx="1" dy="1"/>
      <feGaussianBlur result="blur-2" stdDeviation="1"/>
      <feFlood flood-color="#000" flood-opacity=".1"/>
      <feComposite in2="blur-2" operator="in"/>
      <feComposite in="SourceGraphic"/>
    </filter>
    <linearGradient id="_Безымянный_градиент_21-2" data-name="Безымянный градиент 21" x1="85.18" y1="596.37" x2="366.41" y2="631.66" xlink:href="#_Безымянный_градиент_21"/>
    <linearGradient id="_Безымянный_градиент_21-3" data-name="Безымянный градиент 21" x1="85.29" y1="595.52" x2="366.52" y2="630.8" xlink:href="#_Безымянный_градиент_21"/>
    <linearGradient id="_Безымянный_градиент_21-4" data-name="Безымянный градиент 21" x1="86.03" y1="589.63" x2="367.25" y2="624.92" xlink:href="#_Безымянный_градиент_21"/>
    <linearGradient id="_Безымянный_градиент_21-5" data-name="Безымянный градиент 21" x1="86.68" y1="584.45" x2="367.91" y2="619.73" xlink:href="#_Безымянный_градиент_21"/>
    <linearGradient id="_Безымянный_градиент_21-6" data-name="Безымянный градиент 21" x1="87.69" y1="576.36" x2="368.92" y2="611.64" xlink:href="#_Безымянный_градиент_21"/>
    <linearGradient id="_Безымянный_градиент_21-7" data-name="Безымянный градиент 21" x1="87.69" y1="576.35" x2="368.92" y2="611.64" xlink:href="#_Безымянный_градиент_21"/>
    <linearGradient id="_Безымянный_градиент_21-8" data-name="Безымянный градиент 21" x1="88.46" y1="570.25" x2="369.69" y2="605.54" xlink:href="#_Безымянный_градиент_21"/>
    <filter id="drop-shadow-3" x="18.66" y="475.47" width="423" height="71" filterUnits="userSpaceOnUse">
      <feOffset dx="1" dy="1"/>
      <feGaussianBlur result="blur-3" stdDeviation="1"/>
      <feFlood flood-color="#000" flood-opacity=".1"/>
      <feComposite in2="blur-3" operator="in"/>
      <feComposite in="SourceGraphic"/>
    </filter>
    <linearGradient id="_Безымянный_градиент_6-7" data-name="Безымянный градиент 6" x1="6.41" y1="505.4" x2="453.38" y2="559.93" gradientTransform="matrix(1,0,0,1,0,0)" xlink:href="#_Безымянный_градиент_6"/>
    <linearGradient id="_Безымянный_градиент_6-8" data-name="Безымянный градиент 6" x1="7.25" y1="498.51" x2="454.22" y2="553.04" gradientTransform="matrix(1,0,0,1,0,0)" xlink:href="#_Безымянный_градиент_6"/>
    <linearGradient id="_Безымянный_градиент_6-9" data-name="Безымянный градиент 6" x1="7.9" y1="493.15" x2="454.87" y2="547.68" gradientTransform="matrix(1,0,0,1,0,0)" xlink:href="#_Безымянный_градиент_6"/>
    <linearGradient id="_Безымянный_градиент_6-10" data-name="Безымянный градиент 6" x1="9.33" y1="481.44" x2="456.3" y2="535.97" gradientTransform="matrix(1,0,0,1,0,0)" xlink:href="#_Безымянный_градиент_6"/>
    <linearGradient id="_Безымянный_градиент_6-11" data-name="Безымянный градиент 6" x1="10.25" y1="473.93" x2="457.22" y2="528.47" gradientTransform="matrix(1,0,0,1,0,0)" xlink:href="#_Безымянный_градиент_6"/>
    <linearGradient id="_Безымянный_градиент_6-12" data-name="Безымянный градиент 6" x1="10.62" y1="470.87" x2="457.59" y2="525.41" gradientTransform="matrix(1,0,0,1,0,0)" xlink:href="#_Безымянный_градиент_6"/>
    <linearGradient id="_Безымянный_градиент_6-13" data-name="Безымянный градиент 6" x1="11.61" y1="462.75" x2="458.58" y2="517.29" gradientTransform="matrix(1,0,0,1,0,0)" xlink:href="#_Безымянный_градиент_6"/>
  </defs>
  <g class="cls-24">
    <g>
      <path class="cls-15" d="M204.06,183.61s-10.46-35.64-70.34-35.64c0,0,40.16-122.85,41.82-129.27,4.51-14.26,25.43-31.84,45.86-3.8s43.01,80.08,5.7,125.7c-9.27,9.74-18.77,17.58-23.05,43.01Z"/>
      <path class="cls-29" d="M271.55,224.12s33.15-30.12,28.69-80.91c-3.21-39.21-56.56-96.5-70.69-115.88,19,34.26,28.98,78.99-4.57,115.48,9.5-6.19,33.73-22.77,57.97,2.36,24.24,25.13,1.78,65.58-11.41,78.95Z"/>
      <path class="cls-37" d="M144.21,115.84S14.92,131.57.66,185.51c12.12-14.97,13.78-28.99,133.07-37.54,4.92-15.07,10.49-32.13,10.49-32.13Z"/>
      <path class="cls-45" d="M113.05,254.42s-65.58-51.09-75.09-60.36-18.46-17.52-11.72-29.43c-9.99,3.71-17.56,8.82-25.58,20.88-5.11,9.5,18.3,71.05,112.4,68.91Z"/>
      <path class="cls-50" d="M133.73,148.2l-20.67,106.22-73.6-58.97s-24.46-18.42-13.21-30.81c18.57-5.93,63.05-16.9,107.49-16.43Z"/>
      <path class="cls-9" d="M99.04,381.31s10.69-136.16,34.69-233.11c16.99,0,31.98,3.73,45.69,9.44-21.75-3.2-45.04,3.39-45.69,31.91s40.34,65.76,79.54,94.28,107.94,86.08,153.09,82.28c-37.78,24-112.87,2.61-153.98-33.03-10.22,9.27-76.28,64.16-76.28,64.16,0,0-33.74,19.25-37.07-15.92Z"/>
      <path class="cls-39" d="M133.07,189.31s-18.71,70.57,79.31,143.76c94.46,71.76,153.98,33.03,153.98,33.03,0,0-30.67,6.95-90.68-36.79s-139.88-96.2-142.61-140Z"/>
      <path class="cls-16" d="M278.52,91.8l100.2-15.84s39.92-6.65,28.04,32.55c-9.03,25.19-70.81,109.31-70.81,109.31l41.58,126.89s6.42,18.06-12.83,21.39c-30.48-5.24-33.03,6.18-151.31-82.69,6.61-5.78,60.36-55.98,72.8-78.31s26.74-63.12-7.68-113.3Z"/>
      <path class="cls-5" d="M335.95,217.82s53.89,8.44,63.1,76.51c4.75,42.27-23.39,66.08-23.39,66.08,0,0,5.07-5.3,2.38-13.84s-42.09-128.75-42.09-128.75Z"/>
      <path class="cls-34" d="M298.16,95.68l73.43-11.88s19.26-4.51,27.45,4.75c11.99,13.54-49.55,97.19-56.2,106.69,6.54-13.78,14.5-43.01,8.32-72.24s-52.99-27.33-52.99-27.33Z"/>
      <path class="cls-10" d="M133.73,147.96S-1.24,182.18,34.36,235.78C23.13,227.49.66,210.93.66,185.51c6.66-8.58,11.64-32.08,133.07-37.54Z"/>
      <path class="cls-20" d="M213.39,283.41s37.13-31.49,58.16-59.29c-2.5,7.84-13.19,75.92,51.33,100.16,64.51,24.24,63.8-12.48,65.23-26.38s0-34.93-9.98-54.18c17.47,23.17,41.7,73.43-11.76,122.38-23.38-2.13-39.21,4.51-152.97-82.69Z"/>
    </g>
    <g>
      <circle class="cls-38" cx="291.22" cy="60.04" r="19.25"/>
      <ellipse class="cls-54" cx="287.21" cy="57.01" rx="15.8" ry="14.32" transform="translate(79.27 263.17) rotate(-55.98)"/>
      <path class="cls-53" d="M288.43,46.02s-10.22,5.47-6.42,16.04c1.07,2.85-5.17,5.64-6.59-2.02s4.46-14.38,10.93-16.51c2.08-.53,4.4,1.37,2.08,2.5Z"/>
      <ellipse class="cls-53" cx="293.06" cy="46.02" rx="2.61" ry="2.26"/>
    </g>
    <circle class="cls-3" cx="329.94" cy="65" r="12.42"/>
    <ellipse class="cls-7" cx="327.35" cy="63.04" rx="10.19" ry="9.24" transform="translate(91.95 299.1) rotate(-55.98)"/>
    <path class="cls-53" d="M328.13,55.95s-6.59,3.53-4.14,10.35c.69,1.84-3.33,3.64-4.25-1.3s2.87-9.27,7.05-10.65c1.34-.34,2.84.88,1.34,1.61Z"/>
    <ellipse class="cls-53" cx="331.12" cy="55.95" rx="1.69" ry="1.46"/>
    <circle class="cls-28" cx="257.63" cy="38.44" r="9.54"/>
    <ellipse class="cls-30" cx="255.64" cy="36.94" rx="7.83" ry="7.09" transform="translate(82 228.16) rotate(-55.98)"/>
    <path class="cls-53" d="M256.25,31.49s-5.06,2.71-3.18,7.95c.53,1.41-2.56,2.8-3.27-1s2.21-7.12,5.42-8.18c1.03-.26,2.18.68,1.03,1.24Z"/>
    <ellipse class="cls-53" cx="258.54" cy="31.49" rx="1.3" ry="1.12"/>
    <g>
      <circle class="cls-46" cx="237.54" cy="155.8" r="11.47"/>
      <ellipse class="cls-8" cx="235.15" cy="154" rx="9.41" ry="8.53" transform="translate(-24.05 262.74) rotate(-55.98)"/>
      <path class="cls-53" d="M235.88,147.45s-6.09,3.26-3.82,9.55c.64,1.7-3.08,3.36-3.93-1.2s2.65-8.56,6.51-9.84c1.24-.32,2.62.81,1.24,1.49Z"/>
      <ellipse class="cls-53" cx="238.64" cy="147.45" rx="1.56" ry="1.34"/>
    </g>
    <g>
      <circle class="cls-52" cx="261.05" cy="167.08" r="5.54"/>
      <ellipse class="cls-27" cx="259.9" cy="166.21" rx="4.55" ry="4.12" transform="translate(-23.27 288.64) rotate(-55.98)"/>
      <path class="cls-53" d="M260.25,163.05s-2.94,1.57-1.85,4.61c.31.82-1.49,1.62-1.9-.58s1.28-4.14,3.14-4.75c.6-.15,1.26.39.6.72Z"/>
      <ellipse class="cls-53" cx="261.58" cy="163.05" rx=".75" ry=".65"/>
    </g>
    <g>
      <circle class="cls-33" cx="261.54" cy="146.68" r="7.7"/>
      <ellipse class="cls-11" cx="259.93" cy="145.46" rx="6.32" ry="5.73" transform="translate(-6.06 279.53) rotate(-55.98)"/>
      <path class="cls-53" d="M260.42,141.07s-4.09,2.19-2.57,6.42c.43,1.14-2.07,2.26-2.64-.81s1.78-5.75,4.37-6.61c.83-.21,1.76.55.83,1Z"/>
      <ellipse class="cls-53" cx="262.28" cy="141.07" rx="1.05" ry=".9"/>
    </g>
    <g>
      <circle class="cls-6" cx="87.89" cy="276.37" r="12.98"/>
      <ellipse class="cls-2" cx="85.18" cy="274.33" rx="10.65" ry="9.65" transform="translate(-189.85 191.45) rotate(-55.98)"/>
      <path class="cls-53" d="M86.01,266.92s-6.89,3.68-4.33,10.81c.72,1.92-3.48,3.8-4.45-1.36s3-9.69,7.37-11.13c1.4-.36,2.96.92,1.4,1.68Z"/>
      <ellipse class="cls-53" cx="89.13" cy="266.92" rx="1.76" ry="1.52"/>
    </g>
    <g>
      <circle class="cls-32" cx="66.4" cy="264.34" r="5.47"/>
      <ellipse class="cls-1" cx="65.26" cy="263.48" rx="4.49" ry="4.07" transform="translate(-189.63 170.16) rotate(-55.98)"/>
      <path class="cls-53" d="M65.61,260.36s-2.9,1.55-1.82,4.55c.3.81-1.47,1.6-1.87-.57s1.27-4.08,3.1-4.69c.59-.15,1.25.39.59.71Z"/>
      <ellipse class="cls-53" cx="66.92" cy="260.36" rx=".74" ry=".64"/>
    </g>
    <g>
      <circle class="cls-47" cx="90.07" cy="303.04" r="8.41"/>
      <ellipse class="cls-26" cx="88.31" cy="301.71" rx="6.9" ry="6.25" transform="translate(-211.17 206.11) rotate(-55.98)"/>
      <path class="cls-53" d="M88.85,296.91s-4.46,2.39-2.8,7.01c.47,1.25-2.26,2.47-2.88-.88s1.95-6.28,4.78-7.21c.91-.23,1.92.6.91,1.09Z"/>
      <ellipse class="cls-53" cx="90.87" cy="296.91" rx="1.14" ry=".99"/>
    </g>
    <g>
      <circle class="cls-12" cx="214.44" cy="365.35" r="17.14"/>
      <ellipse class="cls-31" cx="210.87" cy="362.65" rx="14.07" ry="12.75" transform="translate(-207.69 334.54) rotate(-55.98)"/>
      <path class="cls-53" d="M211.95,352.87s-9.1,4.87-5.71,14.29c.95,2.54-4.6,5.03-5.87-1.8-1.27-6.83,3.97-12.8,9.74-14.71,1.85-.48,3.92,1.22,1.85,2.22Z"/>
      <ellipse class="cls-53" cx="216.08" cy="352.87" rx="2.33" ry="2.01"/>
    </g>
    <g>
      <circle class="cls-18" cx="246.67" cy="370.07" r="6.5"/>
      <ellipse class="cls-19" cx="246.29" cy="368.41" rx="5.34" ry="4.84" transform="translate(-92.26 82.45) rotate(-16.05)"/>
      <path class="cls-53" d="M248.99,365.83s-3.83-.8-5.14,2.76c-.34.97-2.56.34-1.27-1.95s4.27-2.76,6.41-1.91c.65.31.84,1.31,0,1.1Z"/>
      <ellipse class="cls-53" cx="250.19" cy="366.83" rx=".76" ry=".88" transform="translate(-191.69 323.22) rotate(-50.07)"/>
    </g>
    <g>
      <circle class="cls-17" cx="183.13" cy="381.92" r="10.01"/>
      <ellipse class="cls-44" cx="180.58" cy="381.34" rx="8.22" ry="7.45" transform="translate(-226 494.12) rotate(-80.16)"/>
      <path class="cls-53" d="M178.82,375.86s-3.68,4.77.37,8.98c1.11,1.13-1.25,3.78-3.56.45s-.95-7.77,1.67-10.16c.87-.7,2.38-.29,1.52.74Z"/>
      <ellipse class="cls-53" cx="181.02" cy="374.88" rx="1.36" ry="1.17" transform="translate(-137.68 107.05) rotate(-24.18)"/>
    </g>
  </g>
  <g class="cls-4">
    <path class="cls-35" d="M97.82,590.57v-11.18h2.41v11.18h5.35v2.41h-5.35v23.85h-2.41v-23.85h-5.35v-2.41h5.35Z"/>
    <path class="cls-42" d="M144,588.19c4.06,0,7.53,1.44,10.39,4.31s4.29,6.34,4.29,10.4-1.43,7.5-4.29,10.38-6.32,4.31-10.39,4.31-7.51-1.44-10.38-4.31c-2.87-2.87-4.31-6.33-4.31-10.38s1.43-7.53,4.31-10.4c2.87-2.87,6.33-4.31,10.38-4.31ZM135.41,594.31c-2.37,2.37-3.56,5.23-3.56,8.58s1.19,6.21,3.56,8.57c2.37,2.36,5.23,3.54,8.58,3.54s6.21-1.18,8.58-3.54c2.37-2.36,3.56-5.22,3.56-8.57s-1.19-6.21-3.56-8.58c-2.37-2.37-5.23-3.56-8.58-3.56s-6.21,1.19-8.58,3.56Z"/>
    <path class="cls-36" d="M194.86,617.2c-3.28,0-5.89-.97-7.84-2.91s-2.94-4.39-2.99-7.35v-16.37h2.41v16.15c0,2.23.81,4.13,2.43,5.7,1.6,1.59,3.59,2.38,5.96,2.38,2.21,0,4.12-.79,5.74-2.37,1.61-1.58,2.42-3.48,2.42-5.71v-16.15h2.41v16.37c-.05,2.96-1.05,5.41-2.99,7.35s-4.46,2.91-7.54,2.91Z"/>
    <path class="cls-51" d="M232.35,590.57h2.41v4.79c.5-.71,1.08-1.4,1.74-2.06,2.12-2.12,4.3-3.24,6.52-3.34v2.62c-1.52.07-3.08.92-4.71,2.54-2.28,2.26-3.47,4.98-3.56,8.16v13.56h-2.41v-26.26Z"/>
    <path class="cls-21" d="M270.73,581.96c.47.46.71,1.03.71,1.68s-.24,1.25-.71,1.71c-.47.46-1.04.7-1.7.7s-1.23-.23-1.7-.7c-.47-.46-.71-1.03-.71-1.71s.24-1.22.71-1.68c.47-.46,1.04-.7,1.7-.7s1.23.23,1.7.7ZM270.24,590.57v26.26h-2.41v-26.26h2.41Z"/>
    <path class="cls-49" d="M304.95,603.33c-2.05-1.11-3.47-2.05-4.25-2.83-1.23-1.23-1.85-2.71-1.85-4.44s.62-3.24,1.85-4.48c1.23-1.24,2.71-1.86,4.44-1.86s3.19.57,4.33,1.71c1.11,1.12,1.66,2.4,1.66,3.82v.13l-2.09.83c-.18-1.35-.6-2.37-1.27-3.05-.67-.68-1.55-1.02-2.63-1.02s-1.99.38-2.75,1.14-1.15,1.68-1.15,2.77.38,1.99,1.15,2.75c.45.45,1.39,1.12,2.83,2.03,2.28,1.25,3.9,2.35,4.87,3.32,1.51,1.53,2.27,3.36,2.27,5.48s-.76,4.02-2.27,5.55c-1.52,1.52-3.35,2.29-5.51,2.29s-3.99-.76-5.51-2.29c-1.51-1.52-2.27-3.2-2.27-5.01l2.38-.62c0,1.57.53,2.88,1.59,3.93,1.06,1.05,2.33,1.58,3.81,1.58s2.75-.53,3.81-1.58c1.06-1.05,1.59-2.33,1.59-3.85s-.53-2.75-1.58-3.8c-.57-.57-1.72-1.41-3.45-2.51Z"/>
    <path class="cls-41" d="M338.11,590.57h2.41v.62c1.5-1.44,3.29-2.17,5.38-2.17s3.99.76,5.51,2.27c.41.41.77.86,1.07,1.34.3-.46.67-.91,1.1-1.34,1.52-1.52,3.35-2.27,5.51-2.27s3.99.76,5.51,2.27c1.44,1.46,2.2,3.22,2.27,5.27v20.27h-2.41v-20.27h.03c-.07-1.39-.6-2.58-1.58-3.56-1.07-1.05-2.34-1.58-3.82-1.58s-2.75.53-3.81,1.58c-1.06,1.05-1.59,2.36-1.59,3.93v19.9h-2.41v-20.27h.03c-.07-1.39-.6-2.58-1.58-3.56-1.07-1.05-2.34-1.58-3.82-1.58s-2.75.53-3.8,1.58c-.93.91-1.45,2.02-1.58,3.34v20.48h-2.41v-26.26Z"/>
  </g>
  <g class="cls-40">
    <path class="cls-48" d="M66.71,525.02c0,10.48-9.5,17.21-22.76,17.21s-22.94-6.27-22.94-14.52c0-2.6,1.97-4.39,4.66-4.39,2.42,0,4.3,1.79,4.3,4.39s-1.88,4.48-4.3,4.48h-.63c2.6,4.84,9.5,8.07,17.83,8.07,10.22,0,17.48-4.93,17.48-11.92,0-7.53-8.33-11.02-17.92-14.79-9.05-3.67-19.98-8.07-19.98-18.91,0-9.95,9.23-16.94,21.69-16.94,11.38,0,20.16,5.83,20.16,13.53,0,2.6-1.88,4.39-4.3,4.39-2.69,0-4.66-1.79-4.66-4.39s1.97-4.48,4.66-4.48h.36c-2.42-4.21-8.24-7.08-15.41-7.08-9.32,0-16.31,5.2-16.31,12.01,0,7.71,8.96,11.38,17.83,14.88,10.4,3.94,20.25,7.8,20.25,18.46Z"/>
    <path class="cls-43" d="M123.7,539.54v1.79h-44.18v-62.73h43.28v1.79h-35.31v28.23h28.14v1.79h-28.14v29.12h36.2Z"/>
    <path class="cls-22" d="M172.27,522.78h-31.37l-8.15,18.55h-2.51l27.51-62.73h3.5l27.42,62.73h-8.33l-8.07-18.55ZM171.46,520.99l-14.88-34.14-14.97,34.14h29.84Z"/>
    <path class="cls-13" d="M266,525.02c0,10.48-9.5,17.21-22.76,17.21s-22.94-6.27-22.94-14.52c0-2.6,1.97-4.39,4.66-4.39,2.42,0,4.3,1.79,4.3,4.39s-1.88,4.48-4.3,4.48h-.63c2.6,4.84,9.5,8.07,17.83,8.07,10.22,0,17.47-4.93,17.47-11.92,0-7.53-8.33-11.02-17.92-14.79-9.05-3.67-19.98-8.07-19.98-18.91,0-9.95,9.23-16.94,21.69-16.94,11.38,0,20.16,5.83,20.16,13.53,0,2.6-1.88,4.39-4.3,4.39-2.69,0-4.66-1.79-4.66-4.39s1.97-4.48,4.66-4.48h.36c-2.42-4.21-8.24-7.08-15.41-7.08-9.32,0-16.31,5.2-16.31,12.01,0,7.71,8.96,11.38,17.83,14.88,10.4,3.94,20.25,7.8,20.25,18.46Z"/>
    <path class="cls-23" d="M320.12,480.39h-21.06v60.94h-7.98v-60.94h-21.24v-1.79h50.27v1.79Z"/>
    <path class="cls-14" d="M357.58,522.78h-31.37l-8.16,18.55h-2.51l27.51-62.73h3.5l27.42,62.73h-8.33l-8.07-18.55ZM356.78,520.99l-14.88-34.14-14.97,34.14h29.84Z"/>
    <path class="cls-25" d="M437.25,541.33h-9.14c-2.06-1.43-3.58-3.32-4.66-5.2l-9.5-16.67c-1.25-2.06-3.14-3.94-5.47-5.02h-15.23v26.88h-7.98v-62.73h24.64c12.99,0,22.76,7.62,22.76,17.83,0,9.32-7.8,16.4-18.82,17.74,4.3,1.25,7.8,3.5,9.59,6.63l8.07,13.71c1.52,2.78,3.85,5.47,5.74,6.81ZM393.25,512.66h15.14c9.59,0,15.95-6.36,15.95-16.13s-6.36-16.13-15.95-16.13h-15.14v32.26Z"/>
  </g>
</svg>